<svg xmlns="http://www.w3.org/2000/svg" xmlns:xlink="http://www.w3.org/1999/xlink" width="131" zoomAndPan="magnify" viewBox="0 0 98.25 30.000001" height="40" preserveAspectRatio="xMidYMid meet" version="1.0"><defs><g/><clipPath id="2f2e5815a7"><path d="M 4 4 L 25 4 L 25 25 L 4 25 Z M 4 4 " clip-rule="nonzero"/></clipPath><clipPath id="30d566fb80"><path d="M 24.074219 14.328125 C 24.074219 14.988281 24.011719 15.640625 23.882812 16.289062 C 23.753906 16.933594 23.566406 17.5625 23.316406 18.171875 C 23.066406 18.78125 22.761719 19.359375 22.398438 19.90625 C 22.035156 20.457031 21.621094 20.964844 21.160156 21.429688 C 20.699219 21.894531 20.195312 22.3125 19.652344 22.679688 C 19.109375 23.046875 18.539062 23.355469 17.933594 23.605469 C 17.332031 23.859375 16.710938 24.050781 16.070312 24.179688 C 15.429688 24.308594 14.78125 24.371094 14.128906 24.371094 C 13.476562 24.371094 12.828125 24.308594 12.1875 24.179688 C 11.546875 24.050781 10.925781 23.859375 10.324219 23.605469 C 9.71875 23.355469 9.148438 23.046875 8.605469 22.679688 C 8.0625 22.3125 7.558594 21.894531 7.097656 21.429688 C 6.636719 20.964844 6.222656 20.457031 5.859375 19.90625 C 5.496094 19.359375 5.191406 18.78125 4.941406 18.171875 C 4.691406 17.5625 4.503906 16.933594 4.375 16.289062 C 4.25 15.640625 4.183594 14.988281 4.183594 14.328125 C 4.183594 13.667969 4.25 13.015625 4.375 12.367188 C 4.503906 11.722656 4.691406 11.09375 4.941406 10.484375 C 5.191406 9.875 5.496094 9.296875 5.859375 8.75 C 6.222656 8.199219 6.636719 7.691406 7.097656 7.226562 C 7.558594 6.761719 8.0625 6.34375 8.605469 5.976562 C 9.148438 5.609375 9.71875 5.300781 10.324219 5.050781 C 10.925781 4.796875 11.546875 4.605469 12.1875 4.476562 C 12.828125 4.347656 13.476562 4.285156 14.128906 4.285156 C 14.78125 4.285156 15.429688 4.347656 16.070312 4.476562 C 16.710938 4.605469 17.332031 4.796875 17.933594 5.050781 C 18.539062 5.300781 19.109375 5.609375 19.652344 5.976562 C 20.195312 6.34375 20.699219 6.761719 21.160156 7.226562 C 21.621094 7.691406 22.035156 8.199219 22.398438 8.75 C 22.761719 9.296875 23.066406 9.875 23.316406 10.484375 C 23.566406 11.09375 23.753906 11.722656 23.882812 12.367188 C 24.011719 13.015625 24.074219 13.667969 24.074219 14.328125 Z M 24.074219 14.328125 " clip-rule="nonzero"/></clipPath><linearGradient x1="1.337397" gradientTransform="matrix(0.736643, 0, 0, 0.743952, 1.237799, -0.17891)" y1="25.255009" x2="33.7847" gradientUnits="userSpaceOnUse" y2="14.100146" id="8e0c18e8c9"><stop stop-opacity="1" stop-color="rgb(97.299194%, 61.999512%, 0%)" offset="0"/><stop stop-opacity="1" stop-color="rgb(97.299194%, 61.999512%, 0%)" offset="0.0625"/><stop stop-opacity="1" stop-color="rgb(97.299194%, 61.999512%, 0%)" offset="0.09375"/><stop stop-opacity="1" stop-color="rgb(97.254944%, 61.837769%, 0.151062%)" offset="0.109375"/><stop stop-opacity="1" stop-color="rgb(97.160339%, 61.488342%, 0.4776%)" offset="0.117187"/><stop stop-opacity="1" stop-color="rgb(97.059631%, 61.112976%, 0.828552%)" offset="0.125"/><stop stop-opacity="1" stop-color="rgb(96.957397%, 60.73761%, 1.179504%)" offset="0.132812"/><stop stop-opacity="1" stop-color="rgb(96.855164%, 60.362244%, 1.530457%)" offset="0.140625"/><stop stop-opacity="1" stop-color="rgb(96.754456%, 59.986877%, 1.882935%)" offset="0.148438"/><stop stop-opacity="1" stop-color="rgb(96.652222%, 59.611511%, 2.233887%)" offset="0.15625"/><stop stop-opacity="1" stop-color="rgb(96.551514%, 59.236145%, 2.584839%)" offset="0.164062"/><stop stop-opacity="1" stop-color="rgb(96.44928%, 58.860779%, 2.935791%)" offset="0.171875"/><stop stop-opacity="1" stop-color="rgb(96.347046%, 58.485413%, 3.288269%)" offset="0.179688"/><stop stop-opacity="1" stop-color="rgb(96.246338%, 58.110046%, 3.639221%)" offset="0.1875"/><stop stop-opacity="1" stop-color="rgb(96.144104%, 57.73468%, 3.990173%)" offset="0.195312"/><stop stop-opacity="1" stop-color="rgb(96.043396%, 57.359314%, 4.341125%)" offset="0.203125"/><stop stop-opacity="1" stop-color="rgb(95.941162%, 56.982422%, 4.693604%)" offset="0.210938"/><stop stop-opacity="1" stop-color="rgb(95.838928%, 56.607056%, 5.044556%)" offset="0.21875"/><stop stop-opacity="1" stop-color="rgb(95.73822%, 56.231689%, 5.395508%)" offset="0.226562"/><stop stop-opacity="1" stop-color="rgb(95.635986%, 55.856323%, 5.74646%)" offset="0.234375"/><stop stop-opacity="1" stop-color="rgb(95.535278%, 55.480957%, 6.098938%)" offset="0.242188"/><stop stop-opacity="1" stop-color="rgb(95.433044%, 55.105591%, 6.44989%)" offset="0.25"/><stop stop-opacity="1" stop-color="rgb(95.332336%, 54.730225%, 6.800842%)" offset="0.255833"/><stop stop-opacity="1" stop-color="rgb(95.281982%, 54.542542%, 6.976318%)" offset="0.257812"/><stop stop-opacity="1" stop-color="rgb(95.230103%, 54.354858%, 7.151794%)" offset="0.265625"/><stop stop-opacity="1" stop-color="rgb(95.127869%, 53.979492%, 7.502747%)" offset="0.273437"/><stop stop-opacity="1" stop-color="rgb(95.027161%, 53.604126%, 7.855225%)" offset="0.28125"/><stop stop-opacity="1" stop-color="rgb(94.924927%, 53.22876%, 8.206177%)" offset="0.289062"/><stop stop-opacity="1" stop-color="rgb(94.824219%, 52.853394%, 8.557129%)" offset="0.296875"/><stop stop-opacity="1" stop-color="rgb(94.721985%, 52.478027%, 8.908081%)" offset="0.304687"/><stop stop-opacity="1" stop-color="rgb(94.619751%, 52.102661%, 9.260559%)" offset="0.3125"/><stop stop-opacity="1" stop-color="rgb(94.519043%, 51.727295%, 9.611511%)" offset="0.320312"/><stop stop-opacity="1" stop-color="rgb(94.416809%, 51.351929%, 9.962463%)" offset="0.328125"/><stop stop-opacity="1" stop-color="rgb(94.316101%, 50.976562%, 10.313416%)" offset="0.335937"/><stop stop-opacity="1" stop-color="rgb(94.213867%, 50.601196%, 10.665894%)" offset="0.34375"/><stop stop-opacity="1" stop-color="rgb(94.111633%, 50.22583%, 11.016846%)" offset="0.351562"/><stop stop-opacity="1" stop-color="rgb(94.010925%, 49.850464%, 11.367798%)" offset="0.359375"/><stop stop-opacity="1" stop-color="rgb(93.908691%, 49.475098%, 11.71875%)" offset="0.367188"/><stop stop-opacity="1" stop-color="rgb(93.807983%, 49.099731%, 12.071228%)" offset="0.375"/><stop stop-opacity="1" stop-color="rgb(93.70575%, 48.724365%, 12.42218%)" offset="0.382812"/><stop stop-opacity="1" stop-color="rgb(93.605042%, 48.348999%, 12.773132%)" offset="0.390625"/><stop stop-opacity="1" stop-color="rgb(93.502808%, 47.973633%, 13.124084%)" offset="0.398437"/><stop stop-opacity="1" stop-color="rgb(93.400574%, 47.598267%, 13.475037%)" offset="0.40625"/><stop stop-opacity="1" stop-color="rgb(93.299866%, 47.2229%, 13.827515%)" offset="0.414062"/><stop stop-opacity="1" stop-color="rgb(93.197632%, 46.847534%, 14.178467%)" offset="0.421875"/><stop stop-opacity="1" stop-color="rgb(93.096924%, 46.470642%, 14.529419%)" offset="0.429688"/><stop stop-opacity="1" stop-color="rgb(92.99469%, 46.095276%, 14.880371%)" offset="0.4375"/><stop stop-opacity="1" stop-color="rgb(92.892456%, 45.71991%, 15.232849%)" offset="0.445312"/><stop stop-opacity="1" stop-color="rgb(92.791748%, 45.344543%, 15.583801%)" offset="0.453125"/><stop stop-opacity="1" stop-color="rgb(92.689514%, 44.969177%, 15.934753%)" offset="0.460937"/><stop stop-opacity="1" stop-color="rgb(92.588806%, 44.593811%, 16.285706%)" offset="0.46875"/><stop stop-opacity="1" stop-color="rgb(92.486572%, 44.218445%, 16.638184%)" offset="0.476562"/><stop stop-opacity="1" stop-color="rgb(92.384338%, 43.843079%, 16.989136%)" offset="0.484375"/><stop stop-opacity="1" stop-color="rgb(92.28363%, 43.467712%, 17.340088%)" offset="0.492188"/><stop stop-opacity="1" stop-color="rgb(92.181396%, 43.092346%, 17.69104%)" offset="0.5"/><stop stop-opacity="1" stop-color="rgb(92.080688%, 42.71698%, 18.043518%)" offset="0.507812"/><stop stop-opacity="1" stop-color="rgb(91.978455%, 42.341614%, 18.39447%)" offset="0.515625"/><stop stop-opacity="1" stop-color="rgb(91.877747%, 41.966248%, 18.745422%)" offset="0.523437"/><stop stop-opacity="1" stop-color="rgb(91.775513%, 41.590881%, 19.096375%)" offset="0.53125"/><stop stop-opacity="1" stop-color="rgb(91.673279%, 41.215515%, 19.447327%)" offset="0.539062"/><stop stop-opacity="1" stop-color="rgb(91.572571%, 40.840149%, 19.799805%)" offset="0.546875"/><stop stop-opacity="1" stop-color="rgb(91.470337%, 40.464783%, 20.150757%)" offset="0.554687"/><stop stop-opacity="1" stop-color="rgb(91.369629%, 40.089417%, 20.501709%)" offset="0.5625"/><stop stop-opacity="1" stop-color="rgb(91.267395%, 39.71405%, 20.852661%)" offset="0.570312"/><stop stop-opacity="1" stop-color="rgb(91.165161%, 39.338684%, 21.205139%)" offset="0.578125"/><stop stop-opacity="1" stop-color="rgb(91.064453%, 38.963318%, 21.556091%)" offset="0.585937"/><stop stop-opacity="1" stop-color="rgb(90.962219%, 38.587952%, 21.907043%)" offset="0.59375"/><stop stop-opacity="1" stop-color="rgb(90.861511%, 38.212585%, 22.257996%)" offset="0.601562"/><stop stop-opacity="1" stop-color="rgb(90.759277%, 37.837219%, 22.610474%)" offset="0.609375"/><stop stop-opacity="1" stop-color="rgb(90.657043%, 37.461853%, 22.961426%)" offset="0.617188"/><stop stop-opacity="1" stop-color="rgb(90.556335%, 37.086487%, 23.312378%)" offset="0.625"/><stop stop-opacity="1" stop-color="rgb(90.454102%, 36.711121%, 23.66333%)" offset="0.632812"/><stop stop-opacity="1" stop-color="rgb(90.353394%, 36.335754%, 24.015808%)" offset="0.640625"/><stop stop-opacity="1" stop-color="rgb(90.25116%, 35.958862%, 24.36676%)" offset="0.648437"/><stop stop-opacity="1" stop-color="rgb(90.150452%, 35.583496%, 24.717712%)" offset="0.65625"/><stop stop-opacity="1" stop-color="rgb(90.048218%, 35.20813%, 25.068665%)" offset="0.664062"/><stop stop-opacity="1" stop-color="rgb(89.945984%, 34.832764%, 25.419617%)" offset="0.671875"/><stop stop-opacity="1" stop-color="rgb(89.845276%, 34.457397%, 25.772095%)" offset="0.679687"/><stop stop-opacity="1" stop-color="rgb(89.743042%, 34.082031%, 26.123047%)" offset="0.6875"/><stop stop-opacity="1" stop-color="rgb(89.642334%, 33.706665%, 26.473999%)" offset="0.695312"/><stop stop-opacity="1" stop-color="rgb(89.5401%, 33.331299%, 26.824951%)" offset="0.703125"/><stop stop-opacity="1" stop-color="rgb(89.437866%, 32.955933%, 27.177429%)" offset="0.710937"/><stop stop-opacity="1" stop-color="rgb(89.337158%, 32.580566%, 27.528381%)" offset="0.71875"/><stop stop-opacity="1" stop-color="rgb(89.234924%, 32.2052%, 27.879333%)" offset="0.726562"/><stop stop-opacity="1" stop-color="rgb(89.134216%, 31.829834%, 28.230286%)" offset="0.734375"/><stop stop-opacity="1" stop-color="rgb(89.031982%, 31.454468%, 28.582764%)" offset="0.742188"/><stop stop-opacity="1" stop-color="rgb(88.931274%, 31.079102%, 28.933716%)" offset="0.744167"/><stop stop-opacity="1" stop-color="rgb(88.88092%, 30.891418%, 29.109192%)" offset="0.75"/><stop stop-opacity="1" stop-color="rgb(88.829041%, 30.703735%, 29.284668%)" offset="0.757812"/><stop stop-opacity="1" stop-color="rgb(88.726807%, 30.328369%, 29.63562%)" offset="0.765625"/><stop stop-opacity="1" stop-color="rgb(88.626099%, 29.953003%, 29.988098%)" offset="0.773437"/><stop stop-opacity="1" stop-color="rgb(88.523865%, 29.577637%, 30.33905%)" offset="0.78125"/><stop stop-opacity="1" stop-color="rgb(88.423157%, 29.202271%, 30.690002%)" offset="0.789062"/><stop stop-opacity="1" stop-color="rgb(88.320923%, 28.826904%, 31.040955%)" offset="0.796875"/><stop stop-opacity="1" stop-color="rgb(88.218689%, 28.451538%, 31.391907%)" offset="0.804687"/><stop stop-opacity="1" stop-color="rgb(88.117981%, 28.076172%, 31.744385%)" offset="0.8125"/><stop stop-opacity="1" stop-color="rgb(88.015747%, 27.700806%, 32.095337%)" offset="0.820312"/><stop stop-opacity="1" stop-color="rgb(87.915039%, 27.325439%, 32.446289%)" offset="0.828125"/><stop stop-opacity="1" stop-color="rgb(87.812805%, 26.950073%, 32.797241%)" offset="0.835937"/><stop stop-opacity="1" stop-color="rgb(87.710571%, 26.574707%, 33.149719%)" offset="0.84375"/><stop stop-opacity="1" stop-color="rgb(87.609863%, 26.199341%, 33.500671%)" offset="0.851562"/><stop stop-opacity="1" stop-color="rgb(87.507629%, 25.823975%, 33.851624%)" offset="0.859375"/><stop stop-opacity="1" stop-color="rgb(87.406921%, 25.448608%, 34.202576%)" offset="0.867188"/><stop stop-opacity="1" stop-color="rgb(87.304688%, 25.071716%, 34.555054%)" offset="0.875"/><stop stop-opacity="1" stop-color="rgb(87.203979%, 24.69635%, 34.906006%)" offset="0.882812"/><stop stop-opacity="1" stop-color="rgb(87.101746%, 24.320984%, 35.256958%)" offset="0.890625"/><stop stop-opacity="1" stop-color="rgb(86.999512%, 23.945618%, 35.60791%)" offset="0.898437"/><stop stop-opacity="1" stop-color="rgb(86.898804%, 23.570251%, 35.958862%)" offset="0.90625"/><stop stop-opacity="1" stop-color="rgb(86.79657%, 23.194885%, 36.31134%)" offset="0.914062"/><stop stop-opacity="1" stop-color="rgb(86.695862%, 22.819519%, 36.662292%)" offset="0.921875"/><stop stop-opacity="1" stop-color="rgb(86.593628%, 22.444153%, 37.013245%)" offset="0.929687"/><stop stop-opacity="1" stop-color="rgb(86.491394%, 22.068787%, 37.364197%)" offset="0.9375"/><stop stop-opacity="1" stop-color="rgb(86.390686%, 21.69342%, 37.716675%)" offset="0.945312"/><stop stop-opacity="1" stop-color="rgb(86.288452%, 21.318054%, 38.067627%)" offset="0.953125"/><stop stop-opacity="1" stop-color="rgb(86.187744%, 20.942688%, 38.418579%)" offset="0.960937"/><stop stop-opacity="1" stop-color="rgb(86.08551%, 20.567322%, 38.769531%)" offset="0.96875"/><stop stop-opacity="1" stop-color="rgb(85.983276%, 20.191956%, 39.122009%)" offset="0.976562"/><stop stop-opacity="1" stop-color="rgb(85.882568%, 19.816589%, 39.472961%)" offset="0.984375"/><stop stop-opacity="1" stop-color="rgb(85.780334%, 19.441223%, 39.823914%)" offset="0.992188"/><stop stop-opacity="1" stop-color="rgb(85.679626%, 19.065857%, 40.174866%)" offset="1"/></linearGradient></defs><g clip-path="url(#2f2e5815a7)"><g clip-path="url(#30d566fb80)"><path fill="url(#8e0c18e8c9)" d="M 4.183594 4.285156 L 4.183594 24.371094 L 24.074219 24.371094 L 24.074219 4.285156 Z M 4.183594 4.285156 " fill-rule="nonzero"/></g></g><path fill="#ffffff" d="M 8.921875 11.082031 C 12 10.304688 15.070312 9.527344 18.148438 8.75 C 18.308594 9.378906 18.46875 10.003906 18.632812 10.636719 C 16.226562 11.242188 13.828125 11.851562 11.425781 12.457031 C 11.429688 12.460938 11.429688 12.464844 11.429688 12.46875 L 18.859375 12.46875 C 18.863281 12.496094 18.863281 12.519531 18.863281 12.539062 C 18.863281 14.171875 18.863281 15.800781 18.863281 17.429688 C 18.863281 18.339844 18.121094 19.113281 17.207031 19.15625 C 17.117188 19.160156 17.03125 19.164062 16.941406 19.164062 C 15 19.164062 13.058594 19.164062 11.121094 19.164062 C 10.636719 19.164062 10.210938 19 9.863281 18.660156 C 9.550781 18.355469 9.371094 17.976562 9.34375 17.535156 C 9.339844 17.449219 9.335938 17.359375 9.335938 17.273438 C 9.335938 15.832031 9.335938 14.390625 9.335938 12.949219 C 9.339844 12.796875 9.320312 12.652344 9.28125 12.507812 C 9.160156 12.050781 9.046875 11.59375 8.929688 11.136719 C 8.925781 11.121094 8.925781 11.105469 8.921875 11.082031 Z M 9.785156 14.421875 L 9.785156 14.5 C 9.785156 15.472656 9.785156 16.445312 9.785156 17.417969 C 9.785156 17.472656 9.792969 17.527344 9.800781 17.578125 C 9.902344 18.25 10.445312 18.714844 11.132812 18.714844 C 13.09375 18.714844 15.058594 18.714844 17.023438 18.714844 C 17.078125 18.714844 17.128906 18.714844 17.183594 18.710938 C 17.882812 18.660156 18.414062 18.09375 18.414062 17.394531 C 18.414062 16.433594 18.414062 15.46875 18.414062 14.507812 L 18.414062 14.421875 Z M 11.160156 12.917969 C 11.175781 12.941406 11.183594 12.957031 11.195312 12.972656 C 11.414062 13.289062 11.636719 13.605469 11.855469 13.921875 C 11.882812 13.960938 11.90625 13.972656 11.953125 13.972656 C 12.21875 13.972656 12.480469 13.972656 12.746094 13.972656 C 12.765625 13.972656 12.785156 13.96875 12.808594 13.96875 C 12.804688 13.953125 12.800781 13.949219 12.796875 13.941406 C 12.570312 13.613281 12.339844 13.28125 12.109375 12.953125 C 12.09375 12.933594 12.058594 12.917969 12.03125 12.917969 C 11.890625 12.914062 11.746094 12.917969 11.605469 12.917969 C 11.460938 12.917969 11.316406 12.917969 11.160156 12.917969 Z M 14.941406 13.972656 C 14.925781 13.945312 14.917969 13.929688 14.90625 13.914062 C 14.683594 13.597656 14.464844 13.28125 14.242188 12.960938 C 14.21875 12.925781 14.191406 12.917969 14.152344 12.917969 C 13.882812 12.917969 13.617188 12.917969 13.351562 12.917969 C 13.332031 12.917969 13.316406 12.917969 13.289062 12.921875 C 13.300781 12.941406 13.308594 12.953125 13.316406 12.960938 C 13.519531 13.253906 13.730469 13.542969 13.921875 13.839844 C 13.992188 13.949219 14.070312 13.980469 14.191406 13.976562 C 14.4375 13.964844 14.683594 13.972656 14.941406 13.972656 Z M 15.414062 12.917969 C 15.429688 12.941406 15.4375 12.957031 15.449219 12.972656 C 15.667969 13.289062 15.890625 13.605469 16.109375 13.921875 C 16.136719 13.960938 16.164062 13.972656 16.207031 13.972656 C 16.46875 13.972656 16.730469 13.972656 16.996094 13.972656 C 17.015625 13.972656 17.035156 13.96875 17.0625 13.96875 C 17.054688 13.953125 17.050781 13.941406 17.042969 13.933594 C 16.816406 13.605469 16.589844 13.277344 16.359375 12.953125 C 16.347656 12.933594 16.3125 12.917969 16.289062 12.917969 C 16.136719 12.914062 15.984375 12.917969 15.832031 12.917969 C 15.695312 12.917969 15.558594 12.917969 15.414062 12.917969 Z M 16.777344 10.640625 C 16.761719 10.625 16.757812 10.617188 16.75 10.613281 C 16.449219 10.351562 16.144531 10.085938 15.839844 9.828125 C 15.824219 9.8125 15.792969 9.808594 15.773438 9.8125 C 15.5 9.878906 15.230469 9.949219 14.957031 10.015625 C 14.949219 10.019531 14.9375 10.023438 14.914062 10.035156 C 14.933594 10.050781 14.949219 10.054688 14.957031 10.066406 C 15.21875 10.289062 15.480469 10.507812 15.734375 10.738281 C 15.839844 10.835938 15.929688 10.867188 16.070312 10.824219 C 16.300781 10.753906 16.535156 10.703125 16.777344 10.640625 Z M 12.65625 11.683594 C 12.644531 11.667969 12.640625 11.660156 12.632812 11.65625 C 12.335938 11.398438 12.035156 11.144531 11.742188 10.882812 C 11.703125 10.851562 11.675781 10.847656 11.628906 10.859375 C 11.40625 10.917969 11.1875 10.972656 10.964844 11.027344 C 10.914062 11.039062 10.863281 11.054688 10.796875 11.070312 C 10.871094 11.132812 10.933594 11.1875 10.996094 11.242188 C 11.238281 11.453125 11.476562 11.660156 11.71875 11.867188 C 11.742188 11.886719 11.777344 11.902344 11.804688 11.898438 C 12.085938 11.828125 12.363281 11.757812 12.65625 11.683594 Z M 12.867188 10.546875 C 12.875 10.5625 12.875 10.566406 12.878906 10.570312 C 13.183594 10.832031 13.488281 11.097656 13.792969 11.359375 C 13.8125 11.375 13.855469 11.378906 13.882812 11.371094 C 14.136719 11.3125 14.394531 11.246094 14.648438 11.179688 C 14.671875 11.175781 14.691406 11.167969 14.71875 11.160156 C 14.417969 10.898438 14.121094 10.644531 13.832031 10.386719 C 13.769531 10.332031 13.714844 10.320312 13.644531 10.347656 C 13.59375 10.367188 13.539062 10.375 13.488281 10.390625 C 13.28125 10.441406 13.078125 10.492188 12.867188 10.546875 Z M 9.789062 13.96875 L 10.679688 13.96875 C 10.675781 13.960938 10.679688 13.953125 10.675781 13.953125 C 10.441406 13.617188 10.210938 13.28125 9.976562 12.945312 C 9.964844 12.929688 9.945312 12.917969 9.929688 12.917969 C 9.886719 12.914062 9.839844 12.917969 9.789062 12.917969 Z M 9.726562 12.421875 C 10.019531 12.351562 10.304688 12.277344 10.609375 12.199219 C 10.582031 12.179688 10.570312 12.171875 10.554688 12.160156 C 10.277344 11.921875 9.996094 11.679688 9.714844 11.4375 C 9.621094 11.355469 9.589844 11.351562 9.46875 11.417969 C 9.554688 11.75 9.640625 12.085938 9.726562 12.425781 Z M 17.539062 12.917969 C 17.769531 13.25 17.992188 13.566406 18.210938 13.886719 C 18.265625 13.96875 18.324219 13.988281 18.410156 13.964844 L 18.410156 12.917969 Z M 17.820312 9.292969 C 17.539062 9.363281 17.265625 9.433594 16.992188 9.503906 L 16.984375 9.523438 C 17 9.53125 17.011719 9.539062 17.023438 9.546875 C 17.300781 9.785156 17.582031 10.023438 17.855469 10.269531 C 17.925781 10.332031 17.988281 10.355469 18.078125 10.300781 C 17.996094 9.96875 17.910156 9.632812 17.820312 9.292969 Z M 17.820312 9.292969 " fill-opacity="1" fill-rule="nonzero"/><path fill="#ffffff" d="M 13.316406 15.277344 C 13.328125 15.285156 13.351562 15.292969 13.371094 15.304688 C 13.960938 15.640625 14.554688 15.980469 15.144531 16.320312 C 15.25 16.382812 15.359375 16.441406 15.464844 16.503906 C 15.546875 16.550781 15.546875 16.613281 15.464844 16.660156 C 14.863281 17.007812 14.261719 17.351562 13.660156 17.695312 C 13.566406 17.75 13.46875 17.808594 13.371094 17.863281 C 13.285156 17.910156 13.230469 17.878906 13.230469 17.785156 C 13.230469 16.984375 13.230469 16.179688 13.230469 15.375 C 13.230469 15.324219 13.246094 15.285156 13.316406 15.277344 Z M 13.316406 15.277344 " fill-opacity="1" fill-rule="nonzero"/><g fill="#ff8d55" fill-opacity="0.4"><g transform="translate(26.231194, 18.063307)"><g><path d="M 3.027344 -7.292969 L 0.636719 -7.292969 L 0.636719 0 L 3.027344 0 C 4.949219 0 6.316406 -1.632812 6.316406 -3.648438 C 6.316406 -5.660156 4.894531 -7.292969 3.027344 -7.292969 Z M 3.027344 -5.933594 C 4.113281 -5.933594 4.960938 -4.933594 4.960938 -3.648438 C 4.960938 -2.992188 4.757812 -2.398438 4.375 -1.96875 C 4.128906 -1.6875 3.703125 -1.359375 3.027344 -1.359375 L 1.996094 -1.359375 L 1.996094 -5.933594 Z M 3.027344 -5.933594 "/></g></g></g><g fill="#ff8d55" fill-opacity="0.4"><g transform="translate(33.185947, 18.063307)"><g><path d="M 4.941406 0 L 6.363281 0 L 4.222656 -7.273438 L 4.222656 -7.292969 L 2.789062 -7.292969 L 0.636719 0 L 2.070312 0 L 2.605469 -1.8125 L 4.402344 -1.8125 Z M 3.007812 -3.171875 L 3.511719 -4.867188 L 4.003906 -3.171875 Z M 3.007812 -3.171875 "/></g></g></g><g fill="#ff8d55" fill-opacity="0.4"><g transform="translate(40.186275, 18.063307)"><g><path d="M 6.710938 -7.292969 L 5.214844 -7.292969 L 3.675781 -3.621094 L 2.140625 -7.292969 L 0.636719 -7.292969 L 0.636719 0 L 2.003906 0 L 2.003906 -4.03125 L 2.925781 -1.832031 L 4.421875 -1.832031 L 5.351562 -4.046875 L 5.351562 0 L 6.710938 0 Z M 6.710938 -7.292969 "/></g></g></g><g fill="#ff8d55" fill-opacity="0.4"><g transform="translate(47.532974, 18.063307)"><g><path d="M 3.027344 -7.292969 L 0.636719 -7.292969 L 0.636719 0 L 3.027344 0 C 4.949219 0 6.316406 -1.632812 6.316406 -3.648438 C 6.316406 -5.660156 4.894531 -7.292969 3.027344 -7.292969 Z M 3.027344 -5.933594 C 4.113281 -5.933594 4.960938 -4.933594 4.960938 -3.648438 C 4.960938 -2.992188 4.757812 -2.398438 4.375 -1.96875 C 4.128906 -1.6875 3.703125 -1.359375 3.027344 -1.359375 L 1.996094 -1.359375 L 1.996094 -5.933594 Z M 3.027344 -5.933594 "/></g></g></g><g fill="#ff8d55" fill-opacity="0.4"><g transform="translate(54.487727, 18.063307)"><g><path d="M 4.941406 0 L 6.363281 0 L 4.222656 -7.273438 L 4.222656 -7.292969 L 2.789062 -7.292969 L 0.636719 0 L 2.070312 0 L 2.605469 -1.8125 L 4.402344 -1.8125 Z M 3.007812 -3.171875 L 3.511719 -4.867188 L 4.003906 -3.171875 Z M 3.007812 -3.171875 "/></g></g></g><g fill="#ff8d55" fill-opacity="0.4"><g transform="translate(61.488054, 18.063307)"><g><path d="M 6.710938 -7.292969 L 5.214844 -7.292969 L 3.675781 -3.621094 L 2.140625 -7.292969 L 0.636719 -7.292969 L 0.636719 0 L 2.003906 0 L 2.003906 -4.03125 L 2.925781 -1.832031 L 4.421875 -1.832031 L 5.351562 -4.046875 L 5.351562 0 L 6.710938 0 Z M 6.710938 -7.292969 "/></g></g></g><g fill="#ff8d55" fill-opacity="0.4"><g transform="translate(68.834753, 18.063307)"><g><path d="M 4.046875 -7.382812 C 1.988281 -7.382812 0.320312 -5.714844 0.320312 -3.65625 C 0.320312 -1.59375 1.988281 0.0742188 4.046875 0.0742188 C 6.109375 0.0742188 7.777344 -1.59375 7.777344 -3.65625 C 7.777344 -5.714844 6.109375 -7.382812 4.046875 -7.382812 Z M 4.046875 -5.988281 C 5.34375 -5.988281 6.253906 -4.941406 6.253906 -3.65625 C 6.253906 -2.371094 5.34375 -1.320312 4.046875 -1.320312 C 2.761719 -1.320312 1.851562 -2.371094 1.851562 -3.65625 C 1.851562 -4.941406 2.761719 -5.988281 4.046875 -5.988281 Z M 4.046875 -5.988281 "/></g></g></g><g fill="#ff8d55" fill-opacity="0.4"><g transform="translate(76.928883, 18.063307)"><g><path d="M 4.941406 -7.292969 L 3.539062 -2.535156 L 2.132812 -7.292969 L 0.636719 -7.292969 L 2.789062 0 L 4.285156 0 L 6.4375 -7.292969 Z M 4.941406 -7.292969 "/></g></g></g><g fill="#ff8d55" fill-opacity="0.4"><g transform="translate(84.002134, 18.063307)"><g><path d="M 0.636719 -7.292969 L 2.003906 -7.292969 L 2.003906 -0.0273438 L 0.636719 -0.0273438 Z M 0.636719 -7.292969 "/></g></g></g><g fill="#ff8d55" fill-opacity="0.4"><g transform="translate(86.645488, 18.063307)"><g><path d="M 6.5625 -7.292969 L 4.859375 -7.292969 L 3.609375 -5.132812 L 2.371094 -7.292969 L 0.636719 -7.292969 L 2.753906 -3.648438 L 0.636719 0.0078125 L 2.371094 0 L 3.609375 -2.152344 L 4.859375 0.0078125 L 6.5625 0.0078125 L 4.46875 -3.648438 Z M 6.5625 -7.292969 "/></g></g></g><g fill="#f89e00" fill-opacity="1"><g transform="translate(26.7632, 17.859089)"><g><path d="M 3.027344 -7.292969 L 0.636719 -7.292969 L 0.636719 0 L 3.027344 0 C 4.949219 0 6.316406 -1.632812 6.316406 -3.648438 C 6.316406 -5.660156 4.894531 -7.292969 3.027344 -7.292969 Z M 3.027344 -5.933594 C 4.113281 -5.933594 4.960938 -4.933594 4.960938 -3.648438 C 4.960938 -2.992188 4.757812 -2.398438 4.375 -1.96875 C 4.128906 -1.6875 3.703125 -1.359375 3.027344 -1.359375 L 1.996094 -1.359375 L 1.996094 -5.933594 Z M 3.027344 -5.933594 "/></g></g></g><g fill="#f89e00" fill-opacity="1"><g transform="translate(33.717953, 17.859089)"><g><path d="M 4.941406 0 L 6.363281 0 L 4.222656 -7.273438 L 4.222656 -7.292969 L 2.789062 -7.292969 L 0.636719 0 L 2.070312 0 L 2.605469 -1.8125 L 4.402344 -1.8125 Z M 3.007812 -3.171875 L 3.511719 -4.867188 L 4.003906 -3.171875 Z M 3.007812 -3.171875 "/></g></g></g><g fill="#f89e00" fill-opacity="1"><g transform="translate(40.718281, 17.859089)"><g><path d="M 6.710938 -7.292969 L 5.214844 -7.292969 L 3.675781 -3.621094 L 2.140625 -7.292969 L 0.636719 -7.292969 L 0.636719 0 L 2.003906 0 L 2.003906 -4.03125 L 2.925781 -1.832031 L 4.421875 -1.832031 L 5.351562 -4.046875 L 5.351562 0 L 6.710938 0 Z M 6.710938 -7.292969 "/></g></g></g><g fill="#f89e00" fill-opacity="1"><g transform="translate(48.064979, 17.859089)"><g><path d="M 3.027344 -7.292969 L 0.636719 -7.292969 L 0.636719 0 L 3.027344 0 C 4.949219 0 6.316406 -1.632812 6.316406 -3.648438 C 6.316406 -5.660156 4.894531 -7.292969 3.027344 -7.292969 Z M 3.027344 -5.933594 C 4.113281 -5.933594 4.960938 -4.933594 4.960938 -3.648438 C 4.960938 -2.992188 4.757812 -2.398438 4.375 -1.96875 C 4.128906 -1.6875 3.703125 -1.359375 3.027344 -1.359375 L 1.996094 -1.359375 L 1.996094 -5.933594 Z M 3.027344 -5.933594 "/></g></g></g><g fill="#f89e00" fill-opacity="1"><g transform="translate(55.019732, 17.859089)"><g><path d="M 4.941406 0 L 6.363281 0 L 4.222656 -7.273438 L 4.222656 -7.292969 L 2.789062 -7.292969 L 0.636719 0 L 2.070312 0 L 2.605469 -1.8125 L 4.402344 -1.8125 Z M 3.007812 -3.171875 L 3.511719 -4.867188 L 4.003906 -3.171875 Z M 3.007812 -3.171875 "/></g></g></g><g fill="#f89e00" fill-opacity="1"><g transform="translate(62.02006, 17.859089)"><g><path d="M 6.710938 -7.292969 L 5.214844 -7.292969 L 3.675781 -3.621094 L 2.140625 -7.292969 L 0.636719 -7.292969 L 0.636719 0 L 2.003906 0 L 2.003906 -4.03125 L 2.925781 -1.832031 L 4.421875 -1.832031 L 5.351562 -4.046875 L 5.351562 0 L 6.710938 0 Z M 6.710938 -7.292969 "/></g></g></g><g fill="#f89e00" fill-opacity="1"><g transform="translate(69.366759, 17.859089)"><g><path d="M 4.046875 -7.382812 C 1.988281 -7.382812 0.320312 -5.714844 0.320312 -3.65625 C 0.320312 -1.59375 1.988281 0.0742188 4.046875 0.0742188 C 6.109375 0.0742188 7.777344 -1.59375 7.777344 -3.65625 C 7.777344 -5.714844 6.109375 -7.382812 4.046875 -7.382812 Z M 4.046875 -5.988281 C 5.34375 -5.988281 6.253906 -4.941406 6.253906 -3.65625 C 6.253906 -2.371094 5.34375 -1.320312 4.046875 -1.320312 C 2.761719 -1.320312 1.851562 -2.371094 1.851562 -3.65625 C 1.851562 -4.941406 2.761719 -5.988281 4.046875 -5.988281 Z M 4.046875 -5.988281 "/></g></g></g><g fill="#f89e00" fill-opacity="1"><g transform="translate(77.460889, 17.859089)"><g><path d="M 4.941406 -7.292969 L 3.539062 -2.535156 L 2.132812 -7.292969 L 0.636719 -7.292969 L 2.789062 0 L 4.285156 0 L 6.4375 -7.292969 Z M 4.941406 -7.292969 "/></g></g></g><g fill="#f89e00" fill-opacity="1"><g transform="translate(84.53414, 17.859089)"><g><path d="M 0.636719 -7.292969 L 2.003906 -7.292969 L 2.003906 -0.0273438 L 0.636719 -0.0273438 Z M 0.636719 -7.292969 "/></g></g></g><g fill="#f89e00" fill-opacity="1"><g transform="translate(87.177494, 17.859089)"><g><path d="M 6.5625 -7.292969 L 4.859375 -7.292969 L 3.609375 -5.132812 L 2.371094 -7.292969 L 0.636719 -7.292969 L 2.753906 -3.648438 L 0.636719 0.0078125 L 2.371094 0 L 3.609375 -2.152344 L 4.859375 0.0078125 L 6.5625 0.0078125 L 4.46875 -3.648438 Z M 6.5625 -7.292969 "/></g></g></g></svg>